<?xml version="1.0" encoding="iso-8859-1"?>
<!-- Uploaded to: SVG Repo, www.svgrepo.com, Generator: SVG Repo Mixer Tools -->
<svg height="800px" width="800px" version="1.1" id="Layer_1" xmlns="http://www.w3.org/2000/svg" xmlns:xlink="http://www.w3.org/1999/xlink" 
	 viewBox="0 0 512.001 512.001" xml:space="preserve">
<path style="fill:#4B92B9;" d="M504.163,224.516c0-63.479-51.46-114.939-114.939-114.939H122.776
	c-63.479,0-114.939,51.46-114.939,114.939c0,0.093,0.003,0.185,0.003,0.278H7.837v136.967c0,34,27.562,61.563,61.563,61.563l0,0
	c25.792,0,48.85-16.078,57.767-40.28l16.78-45.547c27-5.029,50.686-19.485,67.494-39.838h89.117
	c16.809,20.353,40.494,34.81,67.495,39.838l16.78,45.547c8.916,24.202,31.975,40.28,57.767,40.28l0,0
	c34,0,61.563-27.562,61.563-61.563V224.793h-0.003C504.16,224.7,504.163,224.609,504.163,224.516z"/>
<g>
	<path style="fill:#79CAE8;" d="M160.653,88.679h-26.122c-5.771,0-10.449,4.678-10.449,10.449v10.449h47.02V99.128
		C171.102,93.357,166.424,88.679,160.653,88.679z"/>
	<path style="fill:#79CAE8;" d="M377.469,88.679h-26.122c-5.771,0-10.449,4.678-10.449,10.449v10.449h47.02V99.128
		C387.918,93.357,383.24,88.679,377.469,88.679z"/>
</g>
<circle style="fill:#8EC766;" cx="256" cy="167.079" r="26.122"/>
<circle style="fill:#FFFFFF;" cx="256" cy="167.079" r="7.837"/>
<circle style="fill:#FFD85C;" cx="347.429" cy="224.517" r="15.673"/>
<circle style="fill:#79CAE8;" cx="431.02" cy="224.517" r="15.673"/>
<circle style="fill:#FF503D;" cx="389.224" cy="182.721" r="15.673"/>
<circle style="fill:#8EC766;" cx="389.224" cy="266.313" r="15.673"/>
<circle style="fill:#79CAE8;" cx="122.776" cy="224.517" r="47.02"/>
<circle style="fill:#4B92B9;" cx="122.776" cy="224.517" r="20.898"/>
<g>
	<circle style="fill:#79CAE8;" cx="207.673" cy="297.66" r="26.122"/>
	<circle style="fill:#79CAE8;" cx="304.327" cy="297.66" r="26.122"/>
</g>
<polygon style="fill:#4B92B9;" points="233.796,289.822 215.51,289.822 215.51,271.536 199.837,271.536 199.837,289.822 
	181.551,289.822 181.551,305.495 199.837,305.495 199.837,323.781 215.51,323.781 215.51,305.495 233.796,305.495 "/>
<path d="M256,133.124c-18.725,0-33.959,15.234-33.959,33.959s15.235,33.959,33.959,33.959s33.959-15.234,33.959-33.959
	S274.725,133.124,256,133.124z M256,185.369c-10.082,0-18.286-8.202-18.286-18.286c0-10.082,8.203-18.286,18.286-18.286
	c10.082,0,18.286,8.203,18.286,18.286C274.286,177.165,266.082,185.369,256,185.369z"/>
<path d="M347.429,248.026c12.964,0,23.51-10.547,23.51-23.51s-10.546-23.51-23.51-23.51s-23.51,10.547-23.51,23.51
	C323.918,237.479,334.465,248.026,347.429,248.026z M347.429,216.679c4.322,0,7.837,3.515,7.837,7.837s-3.515,7.837-7.837,7.837
	s-7.837-3.515-7.837-7.837S343.107,216.679,347.429,216.679z"/>
<path d="M431.02,248.026c12.964,0,23.51-10.547,23.51-23.51s-10.546-23.51-23.51-23.51c-12.964,0-23.51,10.547-23.51,23.51
	C407.51,237.479,418.056,248.026,431.02,248.026z M431.02,216.679c4.322,0,7.837,3.515,7.837,7.837s-3.515,7.837-7.837,7.837
	s-7.837-3.515-7.837-7.837S426.699,216.679,431.02,216.679z"/>
<path d="M389.224,206.23c12.964,0,23.51-10.547,23.51-23.51s-10.546-23.51-23.51-23.51c-12.964,0-23.51,10.547-23.51,23.51
	C365.714,195.683,376.26,206.23,389.224,206.23z M389.224,174.883c4.322,0,7.837,3.515,7.837,7.837s-3.515,7.837-7.837,7.837
	c-4.322,0-7.837-3.515-7.837-7.837S384.903,174.883,389.224,174.883z"/>
<path d="M389.224,242.801c-12.964,0-23.51,10.547-23.51,23.51c0,12.963,10.546,23.51,23.51,23.51c12.964,0,23.51-10.547,23.51-23.51
	C412.735,253.348,402.189,242.801,389.224,242.801z M389.224,274.148c-4.322,0-7.837-3.515-7.837-7.837
	c0-4.322,3.515-7.837,7.837-7.837c4.322,0,7.837,3.515,7.837,7.837C397.061,270.632,393.546,274.148,389.224,274.148z"/>
<path d="M122.776,169.659c-30.249,0-54.857,24.609-54.857,54.857s24.608,54.857,54.857,54.857s54.857-24.609,54.857-54.857
	C177.633,194.267,153.024,169.659,122.776,169.659z M122.776,263.699c-21.606,0-39.184-17.577-39.184-39.184
	s17.577-39.184,39.184-39.184s39.184,17.577,39.184,39.184S144.382,263.699,122.776,263.699z"/>
<path d="M122.776,195.781c-15.845,0-28.735,12.891-28.735,28.735s12.89,28.735,28.735,28.735s28.735-12.891,28.735-28.735
	S138.62,195.781,122.776,195.781z M122.776,237.577c-7.202,0-13.061-5.859-13.061-13.061s5.859-13.061,13.061-13.061
	s13.061,5.859,13.061,13.061C135.837,231.717,129.978,237.577,122.776,237.577z"/>
<path d="M512,224.518c0-65.508-51.571-119.195-116.245-122.601v-2.788c0-10.082-8.204-18.286-18.286-18.286h-26.122
	c-10.082,0-18.286,8.203-18.286,18.286v2.614H178.939v-2.614c0-10.082-8.203-18.286-18.286-18.286h-26.122
	c-10.082,0-18.286,8.203-18.286,18.286v2.788C51.571,105.322,0,159.009,0,224.518c0,0.091,0.003,0.182,0.003,0.273H0v136.976
	c0,38.263,31.134,69.392,69.402,69.392c28.949,0,55.116-18.249,65.116-45.409l15.267-41.444
	c14.459-3.237,28.202-9.077,40.707-17.372c5.045,2.972,10.916,4.685,17.182,4.685c16.027,0,29.487-11.164,33.037-26.12h30.581
	c3.55,14.958,17.009,26.12,33.035,26.12c6.266,0,12.138-1.714,17.182-4.685c12.505,8.295,26.248,14.135,40.707,17.372l15.266,41.442
	c10,27.162,36.168,45.411,65.116,45.411c38.268,0,69.402-31.129,69.402-69.392V224.79h-0.003
	C511.997,224.699,512,224.609,512,224.518z M348.735,99.128c0-1.441,1.172-2.612,2.612-2.612h26.122c1.44,0,2.612,1.171,2.612,2.612
	v2.614h-31.347V99.128z M134.531,96.516h26.122c1.44,0,2.612,1.171,2.612,2.612v2.614h-31.347v-2.614
	C131.918,97.687,133.091,96.516,134.531,96.516z M119.81,380.332c-7.741,21.025-27.998,35.152-50.408,35.152
	c-29.626,0-53.729-24.098-53.729-53.718v-77.285c21.051,37.451,61.167,62.812,107.102,62.812c3.132,0,6.243-0.124,9.336-0.355
	L119.81,380.332z M207.673,315.944c-10.082,0-18.286-8.203-18.286-18.286s8.203-18.286,18.286-18.286
	c10.082,0,18.286,8.203,18.286,18.286C225.959,307.741,217.756,315.944,207.673,315.944z M271.29,289.824h-30.579
	c-3.547-14.959-17.009-26.125-33.037-26.125c-18.725,0-33.959,15.234-33.959,33.959c0,6.639,1.923,12.834,5.229,18.073
	c-16.851,10.419-36.103,15.889-56.167,15.889c-59.057,0-107.102-48.045-107.102-107.102c0-59.056,48.045-107.102,107.102-107.102
	h266.449c59.057,0,107.102,48.045,107.102,107.102S448.282,331.62,389.225,331.62c-20.064,0-39.316-5.47-56.167-15.889
	c3.307-5.238,5.229-11.433,5.229-18.073c0-18.726-15.235-33.959-33.959-33.959C288.298,263.699,274.837,274.864,271.29,289.824z
	 M286.041,297.658c0-10.082,8.204-18.286,18.286-18.286c10.082,0,18.286,8.203,18.286,18.286s-8.204,18.286-18.286,18.286
	C294.244,315.944,286.041,307.741,286.041,297.658z M496.327,361.765c0,29.621-24.103,53.718-53.729,53.718
	c-22.41,0-42.667-14.127-50.409-35.155l-12.301-33.392c3.092,0.231,6.205,0.355,9.336,0.355c45.935,0,86.052-25.361,107.102-62.812
	V361.765z"/>
</svg>